<?xml version="1.0" encoding="UTF-8" standalone="no"?>
<svg
   xmlns:dc="http://purl.org/dc/elements/1.1/"
   xmlns:cc="http://creativecommons.org/ns#"
   xmlns:rdf="http://www.w3.org/1999/02/22-rdf-syntax-ns#"
   xmlns:svg="http://www.w3.org/2000/svg"
   xmlns="http://www.w3.org/2000/svg"
   xmlns:sodipodi="http://sodipodi.sourceforge.net/DTD/sodipodi-0.dtd"
   xmlns:inkscape="http://www.inkscape.org/namespaces/inkscape"
   width="210mm"
   height="297mm"
   viewBox="0 0 210 297"
   version="1.1"
   id="svg8"
   inkscape:version="1.0.2 (e86c8708, 2021-01-15)"
   sodipodi:docname="drawing.svg">
  <defs
     id="defs2">
    <inkscape:path-effect
       effect="bspline"
       id="path-effect1003"
       is_visible="true"
       lpeversion="1"
       weight="33.333333"
       steps="2"
       helper_size="0"
       apply_no_weight="true"
       apply_with_weight="true"
       only_selected="false" />
    <inkscape:path-effect
       effect="bspline"
       id="path-effect1001"
       is_visible="true"
       lpeversion="1"
       weight="33.333333"
       steps="2"
       helper_size="0"
       apply_no_weight="true"
       apply_with_weight="true"
       only_selected="false" />
    <inkscape:path-effect
       effect="bspline"
       id="path-effect999"
       is_visible="true"
       lpeversion="1"
       weight="33.333333"
       steps="2"
       helper_size="0"
       apply_no_weight="true"
       apply_with_weight="true"
       only_selected="false" />
    <inkscape:path-effect
       effect="bspline"
       id="path-effect997"
       is_visible="true"
       lpeversion="1"
       weight="33.333333"
       steps="2"
       helper_size="0"
       apply_no_weight="true"
       apply_with_weight="true"
       only_selected="false" />
    <inkscape:path-effect
       effect="bspline"
       id="path-effect957"
       is_visible="true"
       lpeversion="1"
       weight="33.333333"
       steps="2"
       helper_size="0"
       apply_no_weight="true"
       apply_with_weight="true"
       only_selected="false" />
    <inkscape:path-effect
       effect="bspline"
       id="path-effect955"
       is_visible="true"
       lpeversion="1"
       weight="33.333333"
       steps="2"
       helper_size="0"
       apply_no_weight="true"
       apply_with_weight="true"
       only_selected="false" />
    <inkscape:path-effect
       effect="bspline"
       id="path-effect925"
       is_visible="true"
       lpeversion="1"
       weight="33.333333"
       steps="2"
       helper_size="0"
       apply_no_weight="true"
       apply_with_weight="true"
       only_selected="false" />
    <inkscape:path-effect
       effect="bspline"
       id="path-effect923"
       is_visible="true"
       lpeversion="1"
       weight="33.333333"
       steps="2"
       helper_size="0"
       apply_no_weight="true"
       apply_with_weight="true"
       only_selected="false" />
    <inkscape:path-effect
       effect="bspline"
       id="path-effect895"
       is_visible="true"
       lpeversion="1"
       weight="33.333333"
       steps="2"
       helper_size="0"
       apply_no_weight="true"
       apply_with_weight="true"
       only_selected="false" />
    <inkscape:path-effect
       effect="bspline"
       id="path-effect891"
       is_visible="true"
       lpeversion="1"
       weight="33.333333"
       steps="2"
       helper_size="0"
       apply_no_weight="true"
       apply_with_weight="true"
       only_selected="false" />
    <inkscape:path-effect
       effect="bspline"
       id="path-effect887"
       is_visible="true"
       lpeversion="1"
       weight="33.333333"
       steps="2"
       helper_size="0"
       apply_no_weight="true"
       apply_with_weight="true"
       only_selected="false" />
    <inkscape:path-effect
       effect="bspline"
       id="path-effect882"
       is_visible="true"
       lpeversion="1"
       weight="33.333333"
       steps="2"
       helper_size="0"
       apply_no_weight="true"
       apply_with_weight="true"
       only_selected="false" />
    <inkscape:path-effect
       effect="bspline"
       id="path-effect858"
       is_visible="true"
       lpeversion="1"
       weight="33.333333"
       steps="2"
       helper_size="0"
       apply_no_weight="true"
       apply_with_weight="true"
       only_selected="false" />
    <inkscape:path-effect
       effect="bspline"
       id="path-effect835"
       is_visible="true"
       lpeversion="1"
       weight="33.333333"
       steps="2"
       helper_size="0"
       apply_no_weight="true"
       apply_with_weight="true"
       only_selected="false" />
  </defs>
  <sodipodi:namedview
     id="base"
     pagecolor="#ffffff"
     bordercolor="#666666"
     borderopacity="1.0"
     inkscape:pageopacity="0.0"
     inkscape:pageshadow="2"
     inkscape:zoom="1.3025609"
     inkscape:cx="279.42761"
     inkscape:cy="298.95347"
     inkscape:document-units="mm"
     inkscape:current-layer="layer1"
     inkscape:document-rotation="0"
     showgrid="false"
     inkscape:snap-global="false"
     inkscape:window-width="1252"
     inkscape:window-height="890"
     inkscape:window-x="187"
     inkscape:window-y="129"
     inkscape:window-maximized="0" />
  <metadata
     id="metadata5">
    <rdf:RDF>
      <cc:Work
         rdf:about="">
        <dc:format>image/svg+xml</dc:format>
        <dc:type
           rdf:resource="http://purl.org/dc/dcmitype/StillImage" />
        <dc:title />
      </cc:Work>
    </rdf:RDF>
  </metadata>
  <g
     inkscape:label="Layer 1"
     inkscape:groupmode="layer"
     id="layer1">
    <g
       id="g880"
       transform="matrix(0.9341071,0,0,0.96693717,1.8335324,0.83963619)">
      <path
         style="fill:#c7d5b1;fill-opacity:1;stroke:#000000;stroke-width:0.264583px;stroke-linecap:butt;stroke-linejoin:miter;stroke-opacity:1"
         d="m 60.781287,80.750887 c 0.2459,-0.913127 0.737769,-2.739635 0.778928,-4.306598 0.04116,-1.566962 -0.368556,-2.87442 -1.968571,-4.611377 -1.600015,-1.736957 -4.390375,-3.903166 -7.284225,-6.695836 -2.89385,-2.79267 -5.890982,-6.211685 -7.247165,-9.460913 -1.356182,-3.249229 -1.071095,-6.328505 -1.158697,-9.236145 -0.0876,-2.907641 -0.547967,-5.64352 -1.587867,-8.04584 -1.039899,-2.40232 -2.65943,-4.470889 -2.920878,-5.520924 -0.261448,-1.050034 0.835244,-1.08119 2.732062,-0.243807 1.896819,0.837384 4.593532,2.543056 7.614252,4.662531 3.020719,2.119474 6.365251,4.652578 9.028766,7.492153 2.663515,2.839574 4.645939,5.985333 5.910196,9.373141 1.264256,3.387808 1.81043,7.017427 1.728217,10.151399 -0.08221,3.133972 -0.792677,5.77221 -1.403609,7.838742 -0.610932,2.066532 -1.122286,3.561267 -1.733208,5.627832 -0.610922,2.066565 -1.321385,4.704802 -2.058986,6.029648 -0.7376,1.324847 -1.502546,1.33651 -1.619729,0.760921 -0.117183,-0.575588 0.413666,-1.738587 0.67914,-2.320196 0.265474,-0.581609 0.265474,-0.581604 0.511374,-1.494731 z"
         id="path833-7-9"
         inkscape:path-effect="#path-effect882"
         inkscape:original-d="m 60.535387,81.664014 c 0.492055,-1.826185 0.983925,-3.652693 1.475608,-5.479529 -0.409546,-1.307182 -0.81926,-2.61464 -1.229168,-3.922446 -2.790286,-2.165971 -5.580644,-4.332183 -8.371248,-6.498759 -2.997064,-3.418827 -5.994197,-6.837841 -8.991577,-10.257248 0.285284,-3.079078 0.570371,-6.158354 0.855278,-9.238018 -0.460194,-2.735659 -0.92056,-5.471538 -1.381122,-8.207794 -1.619409,-2.068329 -3.238939,-4.136899 -4.858692,-6.205838 1.096907,-0.03083 2.193599,-0.06199 3.290123,-0.09347 2.697009,1.706069 5.393723,3.41174 8.090315,5.117127 3.344851,2.533532 6.689386,5.066632 10.033799,7.599464 1.98269,3.146211 3.965116,6.291969 5.947394,9.437469 0.546383,3.630088 1.092555,7.259707 1.638554,10.889074 -0.710305,2.638666 -1.420768,5.276904 -2.131432,7.91487 -0.511183,1.495122 -1.02254,2.989856 -1.534093,4.484296 -0.710304,2.638667 -1.420766,5.276904 -2.131431,7.914867 -0.764788,0.01199 -1.529734,0.02366 -2.294882,0.03499 0.531054,-1.162717 1.0619,-2.325717 1.592574,-3.48906 z" />
      <path
         style="fill:#cee3af;fill-opacity:1;stroke:#000000;stroke-width:0.264583px;stroke-linecap:butt;stroke-linejoin:miter;stroke-opacity:1"
         d="m 61.055937,91.741803 c 0.105106,-1.576291 0.105106,-3.467869 -0.26261,-4.991631 -0.367716,-1.523761 -1.103316,-2.679705 -3.099954,-3.940857 -1.996638,-1.261153 -5.254292,-2.627266 -8.774774,-4.571378 -3.520483,-1.944113 -7.303565,-4.466167 -9.457994,-7.250973 -2.15443,-2.784806 -2.679858,-5.832287 -3.520524,-8.617128 -0.840666,-2.78484 -1.996609,-5.306897 -3.625413,-7.35617 -1.628805,-2.049274 -3.730516,-3.625558 -4.256008,-4.571488 -0.525491,-0.945929 0.525365,-1.261185 2.574679,-0.945838 2.049313,0.315347 5.096795,1.261117 8.56473,2.522201 3.467935,1.261084 7.356102,2.837368 10.66637,4.886666 3.310268,2.049298 6.042492,4.571351 8.144193,7.513874 2.101702,2.942522 3.5729,6.305261 4.308445,9.352804 0.735544,3.047543 0.735544,5.779768 0.682991,7.934073 -0.05255,2.154305 -0.15764,3.730589 -0.210176,5.884924 -0.05254,2.154334 -0.05254,4.886559 -0.420261,6.357632 -0.367726,1.471072 -1.103326,1.681244 -1.366148,1.155925 -0.262822,-0.52532 -0.05265,-1.786345 0.05245,-3.362636 z"
         id="path833"
         inkscape:path-effect="#path-effect835"
         inkscape:original-d="m 61.161043,92.056827 c 2.64e-4,-1.891315 2.64e-4,-3.782893 0,-5.674738 C 60.425678,85.226368 59.690079,84.070424 58.954201,82.914195 55.69668,81.548294 52.439027,80.182179 49.181043,78.815776 45.398076,76.293884 41.614994,73.771831 37.831572,71.249462 37.306387,68.202121 36.780959,65.15464 36.255256,62.10683 35.099535,59.584941 33.943591,57.062885 32.787362,54.540517 30.685832,52.964434 28.58412,51.38815 26.482101,49.811569 c 1.051163,-0.315002 2.102019,-0.630261 3.152632,-0.945788 3.047867,0.946074 6.095349,1.891843 9.142629,2.837368 3.888586,1.576613 7.776755,3.152894 11.664735,4.728946 2.732599,2.522421 5.464824,5.044474 8.19684,7.566316 1.471522,3.363137 2.942719,6.725877 4.413684,10.088419 2.64e-4,2.732598 2.64e-4,5.464823 0,8.196839 -0.104826,1.576613 -0.20991,3.152897 -0.315265,4.728949 2.65e-4,2.732598 2.65e-4,5.464823 0,8.196839 -0.735361,0.210444 -1.470961,0.420616 -2.206839,0.630526 0.210442,-1.260814 0.420613,-2.521839 0.630526,-3.783156 z" />
      <path
         style="fill:#bdcfa2;fill-opacity:1;stroke:#000000;stroke-width:0.264583px;stroke-linecap:butt;stroke-linejoin:miter;stroke-opacity:1"
         d="m 62.765253,91.435811 c 0.06381,-1.578502 0.265796,-3.459265 0.794117,-4.93505 0.528322,-1.475785 1.383149,-2.546572 3.503037,-3.587312 2.119889,-1.04074 5.504792,-2.051188 9.21274,-3.608266 3.707948,-1.557079 7.738706,-3.660754 10.178182,-6.199588 2.439475,-2.538834 3.28731,-5.512786 4.420536,-8.191937 1.133226,-2.679151 2.551866,-5.063357 4.39018,-6.926989 1.838314,-1.863633 4.096326,-3.206482 4.719824,-4.09089 0.623501,-0.884408 -0.387696,-1.310076 -2.458965,-1.215359 -2.071269,0.09472 -5.202318,0.709669 -8.785084,1.593236 -3.582767,0.883566 -7.61702,2.035657 -11.127186,3.719766 -3.510167,1.68411 -6.496076,3.899996 -8.899965,6.601274 -2.40389,2.701278 -4.225752,5.887696 -5.282509,8.839273 -1.056757,2.951577 -1.348505,5.668181 -1.52629,7.815781 -0.177785,2.1476 -0.241616,3.726092 -0.419421,5.873719 -0.177805,2.147627 -0.469553,4.864231 -0.261011,6.366158 0.208542,1.501927 0.917493,1.789446 1.234906,1.295197 0.317413,-0.49425 0.243097,-1.770512 0.306909,-3.349013 z"
         id="path833-7"
         inkscape:path-effect="#path-effect858"
         inkscape:original-d="m 62.62711,91.737811 c 0.201693,-1.88053 0.403676,-3.761293 0.605951,-5.642294 0.854569,-1.07059 1.709395,-2.141378 2.564528,-3.212419 3.384748,-1.010252 6.76965,-2.020703 10.154912,-3.031404 4.030627,-2.103527 8.061386,-4.207201 12.092517,-6.311153 0.847578,-2.973839 1.695414,-5.947791 2.543558,-8.92204 1.418401,-2.384062 2.837043,-4.768267 4.256001,-7.152751 2.257809,-1.342669 4.51582,-2.685519 6.774173,-4.028632 -1.01151,-0.425444 -2.022704,-0.851112 -3.033623,-1.27702 -3.131458,0.615213 -6.262507,1.230163 -9.393328,1.844892 -4.034705,1.152374 -8.068959,2.304462 -12.103002,3.456343 -2.986321,2.216211 -5.972231,4.432096 -8.95791,6.647794 -1.822226,3.186779 -3.644087,6.373198 -5.465696,9.559444 -0.29205,2.716947 -0.583799,5.433551 -0.875262,8.149975 -0.06413,1.578792 -0.127958,3.157285 -0.191497,4.735576 -0.292051,2.716946 -0.5838,5.43355 -0.875262,8.149971 0.708685,0.287769 1.417637,0.575285 2.126894,0.862572 -0.07461,-1.276073 -0.148925,-2.552335 -0.222954,-3.828854 z" />
      <path
         style="fill:#a9cb7a;fill-opacity:1;stroke:#000000;stroke-width:0.264583px;stroke-linecap:butt;stroke-linejoin:miter;stroke-opacity:1"
         d="m 61.069501,82.209555 c 0.222955,-3.000026 1.183089,-7.14437 3.663673,-13.391136 2.480583,-6.246767 6.481424,-14.595457 9.264801,-19.614275 2.783378,-5.018818 4.349074,-6.707433 6.142621,-8.735443 1.793547,-2.02801 3.814843,-4.395295 5.1321,-5.484544 1.317257,-1.08925 1.930092,-0.900584 1.685835,-0.401354 -0.244256,0.49923 -1.345324,1.309162 -3.051722,3.053243 -1.706399,1.744082 -4.017847,4.422064 -5.928757,7.095263 -1.910911,2.6732 -3.421019,5.341254 -4.880933,8.246027 -1.459915,2.904774 -2.869447,6.045881 -4.343568,9.629919 -1.474122,3.584038 -3.012678,7.610628 -4.039018,10.76342 -1.026339,3.152791 -1.540409,5.431558 -1.92833,7.877524 -0.387921,2.445966 -0.649684,5.058941 -1.037599,5.437822 -0.387915,0.37888 -0.902058,-1.47644 -0.679103,-4.476466 z"
         id="path885"
         inkscape:path-effect="#path-effect887"
         inkscape:original-d="m 60.33231,83.353925 c 0.960493,-4.144316 1.920628,-8.288659 2.88046,-12.433279 4.001322,-8.348833 8.002163,-16.697524 12.002766,-25.046575 1.566086,-1.688495 3.131781,-3.377112 4.697193,-5.065958 2.021694,-2.367183 4.042992,-4.734466 6.064004,-7.10199 0.613194,0.188868 1.226029,0.377535 1.83856,0.566014 -1.100813,0.810175 -2.201881,1.620106 -3.303335,2.429893 -2.311269,2.678338 -4.622718,5.35632 -6.934619,8.034265 -1.509869,2.6684 -3.019979,5.336453 -4.530498,8.004472 -1.4093,3.141494 -2.818831,6.282602 -4.228769,9.42371 -1.538298,4.026948 -3.076854,8.053538 -4.615762,12.080015 -0.51377,2.279052 -1.027838,4.55782 -1.54224,6.836439 -0.261449,2.613268 -0.523212,5.226243 -0.785301,7.839065 -0.513831,-1.855164 -1.027976,-3.710483 -1.542459,-5.566071 z"
         sodipodi:nodetypes="cccccccccccccc" />
      <path
         style="fill:#a78fce;fill-opacity:1;stroke:#000000;stroke-width:0.221816px;stroke-linecap:butt;stroke-linejoin:miter;stroke-opacity:1"
         d="m 88.0375,32.118151 c 0.608786,-0.491416 1.826496,-1.474359 3.180469,-1.941661 1.353972,-0.467302 2.843986,-0.418851 3.827773,-0.118651 0.983787,0.300201 1.461171,0.851936 1.621878,1.195844 0.160707,0.343908 0.005,0.48003 -0.476513,0.559859 -0.481556,0.07983 -1.28912,0.103485 -1.440314,0.338236 -0.151194,0.23475 0.353815,0.680433 0.572096,1.226697 0.218281,0.546263 0.150031,1.192919 -0.302417,1.1995 -0.452448,0.0066 -1.289251,-0.626726 -2.062791,-0.926465 -0.773539,-0.29974 -1.483619,-0.265784 -2.227903,0.09158 -0.744284,0.357361 -1.522599,1.037972 -2.150314,1.102438 -0.627715,0.06447 -1.105102,-0.487277 -1.271945,-0.962568 -0.166844,-0.47529 -0.02289,-0.874194 0.04915,-1.073795 0.07203,-0.199601 0.07205,-0.199594 0.680832,-0.69101 z"
         id="path889"
         inkscape:path-effect="#path-effect891"
         inkscape:original-d="m 87.428714,32.609567 c 1.217733,-0.982632 2.435439,-1.965581 3.653133,-2.948832 1.490084,0.04876 2.980098,0.09721 4.470112,0.145354 0.477416,0.552084 0.954807,1.103813 1.432186,1.655245 -0.155646,0.136454 -0.311315,0.272569 -0.467007,0.40838 -0.807578,0.02397 -1.615142,0.04763 -2.422732,0.07097 0.50502,0.44604 1.010033,0.891718 1.515048,1.337066 -0.06823,0.646994 -0.136481,1.29365 -0.204753,1.940016 -0.836826,-0.633014 -1.673623,-1.266328 -2.510456,-1.899953 -0.710088,0.03427 -1.420168,0.06823 -2.130258,0.101868 -0.778333,0.680949 -1.556645,1.361563 -2.335,2.041881 -0.477383,-0.551446 -0.954776,-1.103184 -1.432178,-1.655251 0.143972,-0.398607 0.287932,-0.797511 0.431892,-1.196751 z"
         inkscape:transform-center-x="-3.0028253"
         inkscape:transform-center-y="2.1663863" />
      <path
         style="fill:#c3afe3;fill-opacity:1;stroke:#000000;stroke-width:0.221816px;stroke-linecap:butt;stroke-linejoin:miter;stroke-opacity:1"
         d="m 84.983789,27.365483 c 0.204294,0.642864 0.612799,1.928336 0.607166,3.023999 -0.0056,1.095663 -0.425249,2.001628 -0.521105,2.573534 -0.09586,0.571907 0.131775,0.809657 0.600768,1.070698 0.468993,0.261042 1.179274,0.545473 1.833299,0.234522 0.654026,-0.31095 1.252068,-1.217285 1.559586,-2.385005 0.307519,-1.167719 0.324468,-2.5969 0.127047,-3.811322 -0.197421,-1.214422 -0.609303,-2.21402 -1.126936,-2.45132 -0.517634,-0.2373 -1.140871,0.287945 -1.360349,0.931647 -0.219478,0.643702 -0.03524,1.405574 -0.154723,1.453436 -0.119479,0.04786 -0.542749,-0.618254 -0.88819,-0.951169 -0.34544,-0.332914 -0.613081,-0.332381 -0.746986,-0.332114 -0.133905,2.67e-4 -0.13387,2.29e-4 0.07042,0.643094 z"
         id="path893"
         inkscape:path-effect="#path-effect895"
         inkscape:original-d="m 84.779496,26.722618 c 0.40871,1.28569 0.817174,2.571175 1.225513,3.856407 -0.419459,0.906226 -0.839075,1.81219 -1.258861,2.717926 0.227809,0.238007 0.455459,0.475739 0.682914,0.713267 0.710492,0.284679 1.420771,0.569116 2.130898,0.853314 0.598209,-0.906097 1.196257,-1.812428 1.794114,-2.718989 0.01713,-1.429029 0.03407,-2.85821 0.05085,-4.287668 -0.411718,-0.99942 -0.823603,-1.999016 -1.235672,-2.99886 -0.623088,0.525492 -1.246331,1.05073 -1.869765,1.575779 0.18482,0.762018 0.3686,1.524 0.552708,2.285638 -0.42311,-0.665912 -0.846383,-1.332026 -1.269828,-1.998376 -0.267455,7.26e-4 -0.535096,0.0013 -0.802906,0.0016 z"
         inkscape:transform-center-x="1.2654041"
         inkscape:transform-center-y="-1.5227069" />
      <path
         style="fill:#9680ba;fill-opacity:1;stroke:#000000;stroke-width:0.199885px;stroke-linecap:butt;stroke-linejoin:miter;stroke-opacity:1"
         d="m 77.044332,39.73737 c -0.19234,-0.635843 -0.577059,-1.907654 -0.475594,-3.180284 0.101466,-1.27263 0.689114,-2.545862 1.303977,-3.325836 0.614863,-0.779974 1.25673,-1.06663 1.606611,-1.12736 0.349882,-0.06073 0.407925,0.104209 0.298793,0.537283 -0.109133,0.433073 -0.385409,1.134441 -0.242315,1.317865 0.143094,0.183424 0.705377,-0.151021 1.247562,-0.215603 0.542186,-0.06458 1.06416,0.140493 0.903723,0.531934 -0.160437,0.39144 -1.003166,0.969411 -1.540509,1.568281 -0.537344,0.59887 -0.769132,1.218523 -0.739914,1.940837 0.02922,0.722315 0.319411,1.547054 0.143637,2.102651 -0.175774,0.555596 -0.817643,0.842248 -1.280899,0.87854 -0.463256,0.03629 -0.747874,-0.178011 -0.890288,-0.285241 -0.142414,-0.107231 -0.142443,-0.107224 -0.334784,-0.743067 z"
         id="path889-3"
         inkscape:path-effect="#path-effect923"
         inkscape:original-d="m 77.236673,40.373213 c -0.384564,-1.271722 -0.769177,-2.543564 -1.154158,-3.815436 0.587924,-1.273212 1.175576,-2.546443 1.762964,-3.81974 0.642166,-0.286611 1.284032,-0.573269 1.925627,-0.859982 0.05831,0.165031 0.116385,0.32996 0.174144,0.494856 -0.276008,0.701436 -0.55228,1.402805 -0.828834,2.104114 0.562598,-0.334367 1.124858,-0.668851 1.686886,-1.003356 0.522266,0.205142 1.044238,0.410224 1.565969,0.615245 -0.842502,0.578066 -1.685234,1.156032 -2.528246,1.733953 -0.231532,0.619749 -0.463314,1.239404 -0.695392,1.859029 0.290432,0.824842 0.580661,1.649569 0.870594,2.474264 -0.641635,0.286715 -1.283501,0.573374 -1.92565,0.859972 -0.284358,-0.214256 -0.568975,-0.428561 -0.853875,-0.642926 z" />
      <path
         style="fill:#c3afe3;fill-opacity:1;stroke:#000000;stroke-width:0.199885px;stroke-linecap:butt;stroke-linejoin:miter;stroke-opacity:1"
         d="m 71.903658,41.294336 c 0.618759,-0.03067 1.856021,-0.092 2.780786,0.160665 0.924765,0.252667 1.537179,0.819216 1.985787,1.031184 0.448608,0.211967 0.733248,0.06954 1.126134,-0.275625 0.392886,-0.345169 0.894083,-0.893008 0.870988,-1.527021 -0.02309,-0.634014 -0.570344,-1.354416 -1.445292,-1.883559 -0.874948,-0.529142 -2.077699,-0.866992 -3.177427,-0.971515 -1.099728,-0.104523 -2.096412,0.02438 -2.487072,0.416825 -0.39066,0.392448 -0.175003,1.048397 0.289004,1.383145 0.464008,0.334749 1.176063,0.348265 1.172714,0.462058 -0.0033,0.113793 -0.722111,0.327939 -1.130464,0.550356 -0.408352,0.222417 -0.506096,0.453195 -0.555006,0.568675 -0.04891,0.11548 -0.04891,0.115484 0.569848,0.08481 z"
         id="path893-8"
         inkscape:path-effect="#path-effect925"
         inkscape:original-d="m 71.2849,41.325008 c 1.237512,-0.06144 2.474774,-0.122765 3.711783,-0.183992 0.612695,0.566469 1.225111,1.133016 1.837277,1.699679 0.284916,-0.142469 0.569535,-0.284933 0.853909,-0.427263 0.501472,-0.547959 1.002676,-1.095791 1.503612,-1.64354 -0.54701,-0.720528 -1.094266,-1.440926 -1.641782,-2.161251 -1.202541,-0.337964 -2.405292,-0.675815 -3.608327,-1.01357 -0.996476,0.128795 -1.993158,0.257711 -2.99013,0.386708 0.215911,0.655876 0.431572,1.311824 0.646982,1.967883 0.712352,0.01342 1.424407,0.02693 2.136231,0.04055 -0.718526,0.214067 -1.437294,0.428194 -2.15632,0.642446 -0.0975,0.23068 -0.195234,0.461463 -0.293235,0.692346 z" />
      <path
         style="fill:#a189c7;fill-opacity:1;stroke:#000000;stroke-width:0.24494px;stroke-linecap:butt;stroke-linejoin:miter;stroke-opacity:1"
         d="m 83.422085,43.262051 c 0.727792,0.350229 2.183534,1.050762 3.235711,2.195253 1.052178,1.144491 1.700581,2.732721 1.885852,3.938042 0.18527,1.205321 -0.09248,2.027474 -0.329194,2.396679 -0.236715,0.369206 -0.43228,0.285787 -0.728297,-0.171694 -0.296017,-0.457482 -0.692645,-1.28914 -0.975448,-1.310295 -0.282803,-0.02115 -0.451703,0.767954 -0.844893,1.315658 -0.39319,0.547703 -1.010395,0.854082 -1.226558,0.384247 -0.216163,-0.469836 -0.03155,-1.715935 -0.119543,-2.70088 -0.088,-0.984945 -0.448641,-1.708487 -1.118014,-2.278923 -0.669373,-0.570437 -1.647231,-0.987606 -1.99725,-1.607124 -0.350018,-0.619519 -0.07226,-1.44168 0.280559,-1.89404 0.352817,-0.452359 0.78089,-0.534712 0.99508,-0.575917 0.21419,-0.04121 0.214204,-0.04123 0.941995,0.308994 z"
         id="path889-3-0"
         inkscape:path-effect="#path-effect955"
         inkscape:original-d="m 82.694294,42.911823 c 1.455472,0.700687 2.911194,1.401262 4.367217,2.101596 0.648154,1.588502 1.29656,3.176731 1.945256,4.764802 -0.27804,0.822382 -0.555786,1.644536 -0.833268,2.466511 -0.195854,-0.08328 -0.39141,-0.16672 -0.586758,-0.250282 -0.396903,-0.831457 -0.793536,-1.663112 -1.189875,-2.494955 -0.169229,0.789328 -0.338077,1.578449 -0.506708,2.36736 -0.617503,0.306601 -1.234713,0.61297 -1.851649,0.919155 0.184335,-1.245942 0.368951,-2.492041 0.553854,-3.738356 -0.360944,-0.723388 -0.721594,-1.446928 -1.081972,-2.170696 -0.978176,-0.416991 -1.956036,-0.834157 -2.933639,-1.251536 0.277499,-0.821988 0.555253,-1.644152 0.833289,-2.46651 0.427812,-0.08216 0.855885,-0.164513 1.284239,-0.247061 z"
         inkscape:transform-center-x="-2.1713242"
         inkscape:transform-center-y="-1.0229087" />
      <path
         style="fill:#c3afe3;fill-opacity:1;stroke:#000000;stroke-width:0.24494px;stroke-linecap:butt;stroke-linejoin:miter;stroke-opacity:1"
         d="m 86.368895,37.428218 c -0.549607,0.44944 -1.523703,1.628183 -2.518362,2.262456 -0.994658,0.634273 -2.00988,0.724306 -2.572232,0.958102 -0.562351,0.233795 -0.671848,0.611019 -0.6903,1.254547 -0.01845,0.643529 0.05402,1.55333 0.639442,2.056359 0.585419,0.503028 1.68386,0.599578 2.884004,0.239262 1.200144,-0.360316 2.502039,-1.177624 3.509879,-2.093869 1.007841,-0.916246 1.721539,-1.931502 1.695915,-2.612076 -0.02562,-0.680573 -0.790761,-1.02617 -1.475572,-0.879835 -0.684811,0.146335 -1.289008,0.784367 -1.387845,0.687251 -0.09884,-0.09712 0.307622,-0.929453 0.448559,-1.485607 0.140936,-0.556154 0.01612,-0.83603 -0.533488,-0.38659 z"
         id="path893-8-2"
         inkscape:path-effect="#path-effect957"
         inkscape:original-d="m 86.793584,36.698674 c -0.974213,1.179053 -1.948306,2.357798 -2.922283,3.536221 -1.015399,0.09036 -2.030621,0.180387 -3.045754,0.270108 -0.109633,0.377558 -0.219132,0.754781 -0.3285,1.1317 0.07236,0.91016 0.144831,1.819962 0.217427,2.729462 1.098359,0.09688 2.196801,0.193418 3.295405,0.289656 1.301819,-0.817023 2.603712,-1.634333 3.905752,-2.451966 0.713606,-1.014977 1.427298,-2.030237 2.141135,-3.045827 -0.765256,-0.345366 -1.530426,-0.690889 -2.29547,-1.036817 -0.604346,0.638375 -1.208538,1.276412 -1.812631,1.914141 0.406361,-0.832034 0.812788,-1.664387 1.219383,-2.497018 -0.12497,-0.279572 -0.24977,-0.559456 -0.374464,-0.83966 z"
         inkscape:transform-center-x="-3.7893885"
         inkscape:transform-center-y="-7.5522736" />
      <path
         style="fill:#7c65a0;fill-opacity:1;stroke:#000000;stroke-width:0.216913px;stroke-linecap:butt;stroke-linejoin:miter;stroke-opacity:1"
         d="M 69.431563,51.305992 C 69.105132,50.669841 68.4522,49.397403 68.319248,48.02248 c -0.132951,-1.374923 0.254109,-2.852075 0.763886,-3.81024 0.509777,-0.958165 1.142053,-1.397224 1.504841,-1.534946 0.362789,-0.137722 0.456178,0.02559 0.42161,0.509059 -0.03457,0.483473 -0.197035,1.287258 -0.0091,1.452467 0.187891,0.165209 0.725965,-0.308052 1.29375,-0.490062 0.567785,-0.18201 1.16512,-0.07295 1.067766,0.376946 -0.09735,0.449901 -0.889245,1.240827 -1.350457,1.990148 -0.461211,0.749322 -0.591595,1.456904 -0.423268,2.219129 0.168327,0.762226 0.635279,1.578863 0.552671,2.20659 -0.08261,0.627727 -0.714895,1.066786 -1.203605,1.202209 -0.488711,0.135423 -0.833874,-0.03305 -1.00658,-0.117348 -0.172706,-0.0843 -0.172725,-0.08429 -0.499156,-0.72044 z"
         id="path889-3-4"
         inkscape:path-effect="#path-effect997"
         inkscape:original-d="m 69.757994,51.942143 c -0.652629,-1.272422 -1.305557,-2.544862 -1.958791,-3.817306 0.387374,-1.477207 0.774432,-2.954359 1.161203,-4.431543 0.632606,-0.439074 1.264881,-0.878134 1.896868,-1.317207 0.09373,0.163347 0.187085,0.326676 0.280204,0.489991 -0.162167,0.803807 -0.324628,1.607594 -0.487408,2.41138 0.538424,-0.473246 1.076465,-0.946544 1.614263,-1.419822 0.597654,0.109059 1.194988,0.218118 1.792033,0.327172 -0.7916,0.790959 -1.583499,1.581877 -2.375695,2.372799 -0.130083,0.707622 -0.260475,1.415202 -0.39116,2.122792 0.467269,0.816682 0.93423,1.633314 1.400887,2.449968 -0.632004,0.439071 -1.264289,0.878134 -1.896884,1.317194 -0.34487,-0.168472 -0.690033,-0.336947 -1.035501,-0.505427 z" />
      <path
         style="fill:#bfa8e3;fill-opacity:1;stroke:#000000;stroke-width:0.216913px;stroke-linecap:butt;stroke-linejoin:miter;stroke-opacity:1"
         d="m 64.257857,53.903444 c 0.62573,-0.02888 1.937733,-0.352699 2.975011,-0.277201 1.037278,0.0755 1.799957,0.550154 2.320108,0.681869 0.520152,0.131715 0.797631,-0.07926 1.152445,-0.528534 0.354814,-0.449269 0.787043,-1.136756 0.642024,-1.806336 -0.14502,-0.669579 -0.867185,-1.321507 -1.903635,-1.701504 -1.03645,-0.379997 -2.387281,-0.488007 -3.583622,-0.369356 -1.196341,0.118651 -2.238148,0.464059 -2.581609,0.963154 -0.343461,0.499094 0.01173,1.151762 0.571655,1.410868 0.559928,0.259105 1.324268,0.124668 1.342276,0.24641 0.01801,0.121743 -0.710296,0.499744 -1.104952,0.821672 -0.394656,0.321929 -0.45543,0.587839 0.170299,0.558958 z"
         id="path893-8-8"
         inkscape:path-effect="#path-effect999"
         inkscape:original-d="m 63.571306,54.198448 c 1.312257,-0.323981 2.624261,-0.647797 3.936015,-0.971453 0.762968,0.474516 1.525647,0.949173 2.288084,1.423996 0.277757,-0.211119 0.555223,-0.422115 0.83244,-0.632939 0.432497,-0.687676 0.864732,-1.375159 1.296709,-2.062495 -0.721936,-0.652108 -1.4441,-1.304037 -2.166539,-1.955821 -1.35064,-0.108178 -2.701472,-0.216186 -4.052589,-0.324036 -1.041605,0.345255 -2.083407,0.690678 -3.125502,1.036252 0.355459,0.652534 0.710647,1.305203 1.065591,1.958049 0.764627,-0.134603 1.528967,-0.269041 2.293066,-0.403321 -0.72807,0.377864 -1.456386,0.755842 -2.184951,1.134025 -0.06053,0.265755 -0.121296,0.531667 -0.182324,0.797743 z" />
      <path
         style="fill:#9b85be;fill-opacity:1;stroke:#000000;stroke-width:0.264583px;stroke-linecap:butt;stroke-linejoin:miter;stroke-opacity:1"
         d="m 76.118854,53.857007 c 0.857488,0.07775 2.57266,0.233274 4.047541,0.999006 1.474881,0.765731 2.709183,2.141524 3.338831,3.303995 0.629648,1.16247 0.654671,2.111315 0.553828,2.580615 -0.100843,0.469301 -0.327332,0.459352 -0.792201,0.105213 -0.464869,-0.354139 -1.168337,-1.052514 -1.459179,-0.965058 -0.290843,0.08746 -0.169058,0.960456 -0.360723,1.672877 -0.191665,0.712421 -0.696477,1.264208 -1.085984,0.866609 -0.389506,-0.397598 -0.663986,-1.744529 -1.11506,-2.718923 -0.451074,-0.974394 -1.07869,-1.575975 -1.958873,-1.901707 -0.880184,-0.325732 -2.012632,-0.375535 -2.591269,-0.874722 -0.578638,-0.499187 -0.603654,-1.448043 -0.41726,-2.047276 0.186394,-0.599232 0.584486,-0.848701 0.783673,-0.973524 0.199187,-0.124823 0.199188,-0.124857 1.056676,-0.0471 z"
         id="path889-3-0-3"
         inkscape:path-effect="#path-effect1001"
         inkscape:original-d="m 75.261366,53.779255 c 1.714947,0.155829 3.430118,0.311352 5.145489,0.466564 1.23415,1.376168 2.468463,2.751952 3.702987,4.127468 0.02487,0.949195 0.04993,1.898039 0.07507,2.846596 -0.226712,-0.0097 -0.453202,-0.01963 -0.6795,-0.02985 -0.70369,-0.698073 -1.407157,-1.396448 -2.110412,-2.095135 0.121541,0.873377 0.243378,1.746369 0.365367,2.619098 -0.505039,0.552119 -1.009852,1.103904 -1.514469,1.655395 -0.274712,-1.346669 -0.549191,-2.6936 -0.823453,-4.040867 -0.627876,-0.601301 -1.255484,-1.202891 -1.882915,-1.804808 -1.132694,-0.0495 -2.265142,-0.09929 -3.397394,-0.149413 -0.02523,-0.948572 -0.05019,-1.89743 -0.07505,-2.846605 0.397899,-0.249158 0.795987,-0.498633 1.194279,-0.748409 z"
         inkscape:transform-center-x="-1.7263492"
         inkscape:transform-center-y="-1.6989075" />
      <path
         style="fill:#d2c7e3;fill-opacity:1;stroke:#000000;stroke-width:0.264583px;stroke-linecap:butt;stroke-linejoin:miter;stroke-opacity:1"
         d="m 76.803958,46.628371 c -0.270303,0.791453 -0.810795,2.374024 -1.572539,3.407123 -0.761743,1.033098 -1.74466,1.51697 -2.221295,1.973277 -0.476636,0.456306 -0.447163,0.884748 -0.228434,1.550684 0.218728,0.665936 0.626576,1.569379 1.397886,1.858493 0.771311,0.289115 1.906267,-0.03584 2.974635,-0.867763 1.068367,-0.83192 2.070148,-2.170939 2.741163,-3.497801 0.671015,-1.326862 1.011143,-2.641591 0.73467,-3.328447 -0.276473,-0.686857 -1.169641,-0.745454 -1.801098,-0.331425 -0.631457,0.414029 -1.001022,1.300334 -1.135734,1.239036 -0.134712,-0.0613 -0.03467,-1.070212 -0.09858,-1.693956 -0.06391,-0.623744 -0.291991,-0.86211 -0.406127,-0.981394 -0.114136,-0.119285 -0.114242,-0.11928 -0.384545,0.672173 z"
         id="path893-8-2-9"
         inkscape:path-effect="#path-effect1003"
         inkscape:original-d="m 77.074261,45.836918 c -0.540498,1.582943 -1.080996,3.165512 -1.621473,4.747706 -0.982964,0.484269 -1.965884,0.968134 -2.948799,1.45164 0.02952,0.428812 0.05897,0.857255 0.08842,1.285325 0.407878,0.903861 0.815705,1.807313 1.223581,2.710415 1.134996,-0.324594 2.269951,-0.649559 3.404939,-0.974895 1.001832,-1.338707 2.003606,-2.677731 3.005407,-4.017145 0.340153,-1.314416 0.680258,-2.629151 1.020409,-3.944286 -0.893196,-0.05826 -1.786366,-0.116822 -2.679543,-0.175795 -0.369591,0.886709 -0.739159,1.773013 -1.108713,2.658955 0.100031,-1.008586 0.200106,-2.017497 0.300137,-3.026798 -0.2281,-0.238011 -0.456174,-0.476379 -0.684259,-0.715127 z"
         inkscape:transform-center-x="-1.0910127"
         inkscape:transform-center-y="-9.4033382" />
    </g>
  </g>
</svg>
