<?xml version="1.0" encoding="UTF-8" standalone="no"?>
<svg
   xmlns:dc="http://purl.org/dc/elements/1.1/"
   xmlns:cc="http://creativecommons.org/ns#"
   xmlns:rdf="http://www.w3.org/1999/02/22-rdf-syntax-ns#"
   xmlns:svg="http://www.w3.org/2000/svg"
   xmlns="http://www.w3.org/2000/svg"
   xmlns:sodipodi="http://sodipodi.sourceforge.net/DTD/sodipodi-0.dtd"
   xmlns:inkscape="http://www.inkscape.org/namespaces/inkscape"
   width="16.0px"
   height="16.0px"
   viewBox="0 0 16.0 16.0"
   version="1.1"
   id="SVGRoot"
   sodipodi:docname="favicon.svg"
   inkscape:version="1.0.2 (e86c8708, 2021-01-15)">
  <defs
     id="defs833">
    <inkscape:path-effect
       effect="bspline"
       id="path-effect1436"
       is_visible="true"
       lpeversion="1"
       weight="33.333333"
       steps="2"
       helper_size="0"
       apply_no_weight="true"
       apply_with_weight="true"
       only_selected="false" />
    <inkscape:path-effect
       effect="bspline"
       id="path-effect1412"
       is_visible="true"
       lpeversion="1"
       weight="33.333333"
       steps="2"
       helper_size="0"
       apply_no_weight="true"
       apply_with_weight="true"
       only_selected="false" />
  </defs>
  <sodipodi:namedview
     id="base"
     pagecolor="#ffffff"
     bordercolor="#666666"
     borderopacity="1.0"
     inkscape:pageopacity="0.0"
     inkscape:pageshadow="2"
     inkscape:zoom="0.3360882"
     inkscape:cx="863.10955"
     inkscape:cy="1419.3159"
     inkscape:document-units="px"
     inkscape:current-layer="layer1"
     inkscape:document-rotation="0"
     showgrid="true"
     inkscape:window-width="1252"
     inkscape:window-height="890"
     inkscape:window-x="22"
     inkscape:window-y="92"
     inkscape:window-maximized="0"
     inkscape:snap-global="false">
    <inkscape:grid
       type="xygrid"
       id="grid1403" />
  </sodipodi:namedview>
  <metadata
     id="metadata836">
    <rdf:RDF>
      <cc:Work
         rdf:about="">
        <dc:format>image/svg+xml</dc:format>
        <dc:type
           rdf:resource="http://purl.org/dc/dcmitype/StillImage" />
        <dc:title></dc:title>
      </cc:Work>
    </rdf:RDF>
  </metadata>
  <g
     inkscape:label="Layer 1"
     inkscape:groupmode="layer"
     id="layer1">
    <path
       style="fill:none;stroke:#000000;stroke-width:1px;stroke-linecap:butt;stroke-linejoin:miter;stroke-opacity:1"
       d="m 1016.1905,1307.6196 c 7.6191,-37.1423 3e-4,-89.5222 -38.09522,-122.8566 -38.09548,-33.3345 -106.66555,-47.6199 -162.85691,-40.9532 -56.19136,6.6667 -99.99999,34.2853 -123.33352,80.477 -23.33352,46.1917 -26.19061,110.9523 -19.52348,160.9527 6.66712,50.0005 22.85696,85.2372 65.71528,119.0471 42.85833,33.8098 112.37933,66.1895 164.28509,95.714 51.90576,29.5246 86.19081,56.1907 108.09526,90.477 21.9044,34.2863 31.428,76.1903 29.5229,128.0954 -1.9051,51.9052 -15.2381,113.8088 -46.66694,157.618 -31.4288,43.8093 -80.95163,69.5231 -133.80891,69.047 -52.85728,-0.4761 -109.0455,-27.1417 -145.23716,-69.9994 -36.19165,-42.8577 -52.38148,-101.9029 -48.57212,-149.0472 3.80936,-47.1443 27.61794,-82.381 35.71355,-116.6669 8.0956,-34.2859 0.47686,-67.6179 -22.38029,-89.5235 -22.85714,-21.9057 -60.95084,-32.3814 -90.47536,-37.1436 -29.52452,-4.7622 -50.47743,-3.8098 -71.42981,-2.8574 5.71428,-8.5714 11.4283,-17.1425 5.2383,-29.9995 -6.19001,-12.857 -24.28454,-29.9992 -49.99936,-38.0951 -25.71483,-8.0959 -59.04682,-7.1435 -87.61933,6.1901 -28.57251,13.3336 -52.38109,39.0469 -67.61954,71.4289 -15.23845,32.382 -21.90484,71.428 -26.66681,109.0479 -4.76196,37.6198 -7.61899,73.8088 -15.23823,101.9043 -7.61925,28.0955 -19.99969,48.0947 -36.66654,65.7139 -16.66684,17.6193 -37.61897,32.8571 -58.57135,48.0952 26.66667,4.7619 53.33394,9.5239 79.04856,9.5237 25.71462,-1e-4 50.47553,-4.7619 83.33316,-17.1431 32.85762,-12.3812 73.80838,-32.3804 109.52317,-57.6189 35.71479,-25.2385 66.18976,-55.7135 84.28527,-86.6661 18.09552,-30.9526 23.80958,-62.3799 20.95281,-87.1421 -2.85677,-24.7622 -14.28583,-42.8582 -25.7144,-60.9534 17.14286,-1.9048 34.28625,-3.8097 52.8582,-2.3809 18.57194,1.4288 38.57116,6.1905 52.38056,20.0007 13.8094,13.8103 21.42816,36.6666 12.85626,69.524 -8.5719,32.8573 -33.3328,75.7127 -43.80907,123.3331 -10.47627,47.6204 -6.6669,99.9992 10.47672,143.8096 17.14363,43.8104 47.61861,79.0471 88.09576,105.714 40.47715,26.6669 90.95229,44.7618 152.85758,46.6661 61.90528,1.9043 135.23715,-12.3811 184.76072,-48.5719 49.5236,-36.1907 75.2368,-94.2837 88.0943,-146.6654 12.8575,-52.3817 12.8575,-99.0474 9.048,-146.6669 -3.8095,-47.6195 -11.4284,-96.19 -38.5712,-137.1428 -27.1429,-40.9529 -73.8086,-74.2856 -125.23769,-101.905 -51.4291,-27.6194 -107.61844,-49.5238 -152.38078,-76.1905 -44.76233,-26.6667 -78.09498,-58.0946 -91.90503,-94.2856 -13.81004,-36.191 -8.09588,-77.1425 11.42842,-109.5241 19.52429,-32.3817 52.85698,-56.1908 87.6197,-65.7144 34.76272,-9.5237 70.95173,-4.762 95.71379,17.1438 24.76205,21.9057 38.0951,60.9525 35.71412,85.2376 -2.38097,24.285 -20.47655,33.809 -38.57179,43.3328 0,0 40,48.5714 40,48.5714 22.85712,-21.9048 45.71426,-43.8095 53.33336,-80.9518 z"
       id="path1434"
       inkscape:path-effect="#path-effect1436"
       inkscape:original-d="m 1031.4285,1322.8571 c -7.618,-52.3799 -15.2369,-104.7598 -22.8571,-157.1428 -68.57176,-14.285 -137.14182,-28.5705 -205.71426,-42.8572 -43.8094,27.6206 -87.61804,55.2391 -131.42857,82.8572 -2.8562,64.7642 -5.71328,129.5248 -8.57143,194.2857 16.1918,35.2398 32.38163,70.4765 48.57143,105.7143 69.5262,32.3826 139.04721,64.7622 208.57143,97.1428 34.2874,26.6682 68.57242,53.3344 102.8571,80 9.525,41.9066 19.0487,83.8106 28.5715,125.7143 -13.3326,61.907 -26.6657,123.8106 -40,185.7143 -49.52383,25.7158 -99.04665,51.4296 -148.57146,77.1429 -56.19059,-26.6662 -112.37882,-53.3318 -168.57142,-80.0001 -16.18981,-59.0478 -32.37964,-118.093 -48.57144,-177.1428 23.811,-35.2378 47.61958,-70.4745 71.42858,-105.7143 -7.6182,-33.333 -15.23694,-66.665 -22.85715,-100 C 656.19071,1598.096 618.097,1587.6203 580,1577.1429 559.0482,1578.0963 517.14286,1580 517.14286,1580 c 0,0 11.42946,-17.1417 17.14285,-25.7143 -18.09459,-17.1422 -36.18911,-34.2844 -54.28571,-51.4286 -33.333,0.9534 -66.66499,1.9058 -100.00001,2.8572 -23.809,25.7158 -47.61756,51.4291 -71.42857,77.1429 -6.66579,39.0494 -13.33219,78.0954 -19.99999,117.1428 -2.8562,36.1922 -5.71323,72.3812 -8.57143,108.5714 -12.3802,20.0014 -24.76065,40.0006 -37.14286,60.0001 C 221.90534,1883.8109 180,1914.2857 180,1914.2857 c 0,0 53.3338,9.5247 80,14.2857 24.7634,-4.761 49.52431,-9.5227 74.28571,-14.2857 40.95421,-19.9994 81.90495,-39.9986 122.85714,-59.9999 30.4778,-30.4759 60.95278,-60.9509 91.42857,-91.4287 5.7154,-31.4282 11.42945,-62.8555 17.14287,-94.2857 -11.42782,-18.0946 -34.28572,-54.2856 -34.28572,-54.2856 0,0 34.28637,-3.8086 51.42857,-5.7144 20.0014,4.763 40.00062,9.5247 60,14.2857 7.62019,22.8586 15.23894,45.7149 22.85714,68.5715 -24.7614,42.859 -49.52231,85.7144 -74.28571,128.5714 3.8106,52.383 7.61998,104.7618 11.42858,157.1428 30.47779,35.2398 60.95277,70.4765 91.42857,105.7143 50.4782,18.0967 100.95338,36.1915 151.42857,54.2858 73.3358,-14.285 146.66766,-28.5705 220.00001,-42.8572 25.7158,-58.0954 51.4291,-116.1883 77.1428,-174.2857 10e-4,-46.6666 10e-4,-93.3323 0,-140 -7.6182,-48.5714 -15.2371,-97.1419 -22.8571,-145.7143 -46.6666,-33.333 -93.3323,-66.6657 -140,-100 -56.1906,-21.9042 -112.37995,-43.8085 -168.57143,-65.7143 -33.333,-31.4282 -66.66567,-62.8561 -100,-94.2857 5.7154,-40.9522 11.42957,-81.9037 17.14286,-122.8571 33.335,-23.809 66.66767,-47.6181 100,-71.4286 36.1922,4.763 72.38121,9.5247 108.57143,14.2857 13.33461,39.0494 26.66764,78.0962 39.99999,117.1429 C 959.04858,1320.9534 922.85714,1340 922.85714,1340 l 40,48.5714 c 0,0 45.71526,-43.8085 68.57136,-65.7143 z"
       sodipodi:nodetypes="cccccccccccccccccccccccccccccccccccccccccccccccccccc" />
    <path
       style="opacity:0.995;fill:#638433;fill-opacity:1;stroke:#000000;stroke-width:1.85553"
       d="m 810.72553,2113.9062 c -53.74348,-9.7299 -107.52383,-37.3923 -144.02312,-74.0798 -25.06134,-25.1905 -40.51573,-50.3829 -52.99362,-86.3856 -8.8339,-25.4886 -9.2986,-29.1031 -9.37718,-72.9364 -0.0943,-52.6304 1.59101,-60.0116 30.09433,-131.8 23.98811,-60.4163 26.08726,-86.1697 9.09,-111.5199 -13.71929,-20.4612 -55.13672,-31.5357 -97.93998,-26.1878 l -16.39334,2.0483 12.24217,23.9779 c 11.88742,23.283 12.23798,24.8087 12.09724,52.6498 -0.11396,22.5567 -1.58402,32.3116 -6.89235,45.7375 -22.42132,56.708 -84.05423,112.7903 -167.24268,152.181 -63.63619,30.1325 -103.24681,38.3509 -153.1732,31.7801 -43.9241,-5.7808 -42.80285,-4.6848 -21.42684,-20.9448 25.45716,-19.3644 50.62331,-46.5011 59.65714,-64.3286 11.81156,-23.3089 16.12905,-42.5068 25.75999,-114.5424 13.49419,-100.9312 26.5347,-138.6348 59.6797,-172.55 27.10548,-27.7353 61.10682,-40.8026 97.36029,-37.4172 23.4722,2.1919 46.7675,12.4304 61.26277,26.9257 13.69906,13.6991 16.20328,23.1412 9.73489,36.7056 l -4.98613,10.456 13.38413,-2.007 c 7.36129,-1.104 26.94945,-0.5144 43.52926,1.31 87.2507,9.6008 131.46627,43.4659 131.21922,100.502 -0.0931,21.5089 -2.32999,29.9388 -20.69888,78.0074 -15.63331,40.9101 -19.98711,69.7828 -15.5503,103.1235 6.181,46.4475 24.18499,86.308 53.07979,117.5179 40.82152,44.0921 98.1753,68.0237 153.6425,64.1093 104.01463,-7.3404 169.52947,-100.3626 169.11437,-240.1195 -0.1955,-65.8256 -14.0713,-104.5909 -51.56657,-144.0637 -27.73956,-29.2026 -51.18763,-44.8943 -138.40873,-92.6248 -84.63817,-46.3171 -111.10143,-63.753 -133.53152,-87.9802 -33.06106,-35.7099 -44.44,-72.5159 -44.50615,-143.9583 -0.068,-73.5016 12.51466,-111.6861 48.55104,-147.3369 32.65158,-32.3022 66.49731,-44.4564 124.01123,-44.5331 79.43926,-0.1058 141.88957,33.2559 162.1335,86.6139 5.8679,15.4662 7.1969,24.4639 7.1969,48.7233 0,27.0839 -0.8241,31.4897 -9.1831,49.0943 -8.73907,18.405 -38.22285,54.7466 -42.93962,52.9272 -1.22286,-0.4717 -9.73512,-10.0538 -18.91613,-21.2937 l -16.69273,-20.4362 13.06749,-8.6555 c 17.96609,-11.9002 23.70705,-24.9656 21.91779,-49.881 -2.605,-36.2751 -24.79457,-70.7036 -55.18888,-85.6291 -15.0988,-7.4144 -20.07146,-8.3233 -43.81067,-8.0077 -82.77551,1.1005 -146.52357,68.8108 -140.44564,149.175 4.37951,57.9072 50.64775,105.9407 146.83334,152.4354 130.0051,62.8427 165.55825,84.1036 201.51205,120.5051 37.4973,37.9643 54.3718,75.5857 62.8245,140.0667 5.8727,44.7993 5.7767,108.7115 -0.2169,144.3411 -5.986,35.5854 -18.8188,74.4352 -34.7397,105.1706 -15.6105,30.1365 -54.2043,70.2287 -81.0908,84.2395 -55.41065,28.8748 -141.11288,40.8345 -207.06087,28.8951 z"
       id="path1438" />
  </g>
</svg>
